<svg width="61" height="59" viewBox="0 0 61 59" fill="none" xmlns="http://www.w3.org/2000/svg">
<path fill-rule="evenodd" clip-rule="evenodd" d="M30.5 59C47.3447 59 61 45.7924 61 29.5C61 13.2076 47.3447 0 30.5 0C13.6553 0 0 13.2076 0 29.5C0 45.7924 13.6553 59 30.5 59ZM44.8131 20.3192C45.1736 19.9008 45.1267 19.2694 44.7083 18.9089C44.2899 18.5484 43.6585 18.5954 43.298 19.0138L27.7364 37.0754C27.3931 37.4739 27.2012 37.6931 27.0487 37.8278L27.0429 37.8329L27.0366 37.8283C26.8725 37.7081 26.6616 37.5071 26.2835 37.1415L17.6397 28.781C17.2427 28.3971 16.6096 28.4076 16.2257 28.8046C15.8417 29.2016 15.8522 29.8347 16.2492 30.2186L24.8931 38.5791L24.9337 38.6184C25.2554 38.9297 25.5661 39.2303 25.8547 39.4417C26.1787 39.6791 26.5998 39.9002 27.1358 39.8759C27.6718 39.8515 28.071 39.593 28.3722 39.3272C28.6404 39.0905 28.9225 38.763 29.2146 38.4238L29.2146 38.4237L29.2515 38.3809L44.8131 20.3192Z" fill="#FFC822"/>
</svg>
