<svg width="53" height="58" viewBox="0 0 53 58" fill="none" xmlns="http://www.w3.org/2000/svg">
<path fill-rule="evenodd" clip-rule="evenodd" d="M24.3776 56.9214L2.41922 43.1754C1.50133 42.6008 1.04239 42.3135 0.792022 41.8614C0.541656 41.4093 0.541656 40.8679 0.541656 39.785V18.2152C0.541656 17.8027 0.541656 17.4688 0.555489 17.1885L25.5 32.8038V57.5923C25.1944 57.4327 24.8371 57.2091 24.3776 56.9214ZM27.5 57.5923C27.8056 57.4327 28.1629 57.2091 28.6224 56.9214L50.5808 43.1754C51.4987 42.6008 51.9576 42.3135 52.208 41.8614C52.4583 41.4093 52.4583 40.8679 52.4583 39.785V18.2152C52.4583 17.8027 52.4583 17.4688 52.4445 17.1885L27.5 32.8038V57.5923ZM51.4995 15.4205L26.5 31.0703L1.5005 15.4205C1.74044 15.2496 2.04083 15.0616 2.41922 14.8247L24.3776 1.07871C25.4096 0.432651 25.9256 0.109619 26.5 0.109619C27.0744 0.109619 27.5904 0.432651 28.6224 1.07871L50.5808 14.8247C50.9592 15.0616 51.2595 15.2496 51.4995 15.4205Z" fill="#FFC822"/>
</svg>
