<svg width="60" height="59" viewBox="0 0 60 59" fill="none" xmlns="http://www.w3.org/2000/svg">
<path d="M26.7 0.299931C12.9 1.79993 1.80003 12.8999 0.300027 26.3999C-1.19997 40.5 6.90003 53.1 19.2 57.9C20.1 58.2 21 57.6 21 56.4V51.6C21 51.6 19.8 51.9 18.3 51.9C14.1 51.9 12.3 48.3 12 46.2C11.7 45 11.1 44.1 10.2 43.2C9.30003 42.9 9.00003 42.9 9.00003 42.6C9.00003 42 9.90003 42 10.2 42C12 42 13.5 44.1 14.1 45C15.6 47.4 17.4 48 18.3 48C19.5 48 20.4 47.7 21 47.4C21.3 45.3 22.2 43.2 24 42C17.1 40.5 12 36.6 12 29.9999C12 26.6999 13.5 23.3999 15.6 20.9999C15.3 20.3999 15 18.8999 15 16.7999C15 15.5999 15 13.7999 15.9 11.9999C15.9 11.9999 20.1 11.9999 24.3 15.8999C25.8 15.2999 27.9 14.9999 30 14.9999C32.1 14.9999 34.2 15.2999 36 15.8999C39.9 11.9999 44.4 11.9999 44.4 11.9999C45 13.7999 45 15.5999 45 16.7999C45 19.1999 44.7 20.3999 44.4 20.9999C46.5 23.3999 48 26.3999 48 29.9999C48 36.6 42.9 40.5 36 42C37.8 43.5 39 46.2 39 48.9V56.7C39 57.6 39.9 58.5 41.1 58.2C52.2 53.7 60 42.9 60 30.3C60 12.2999 44.7 -1.80007 26.7 0.299931Z" fill="#E8E8E8"/>
</svg>
