<svg width="51" height="51" viewBox="0 0 51 51" fill="none" xmlns="http://www.w3.org/2000/svg">
<path fill-rule="evenodd" clip-rule="evenodd" d="M30.3493 0.341799C30.635 0.600347 30.6778 1.02831 30.7634 1.88424L31.2712 6.96156C31.4345 8.59509 31.5162 9.41186 32.069 9.64085C32.6218 9.86983 33.2571 9.35004 34.5277 8.31047L38.4769 5.07932C39.1427 4.53461 39.4755 4.26225 39.8604 4.28145C40.2452 4.30064 40.5493 4.60477 41.1576 5.21302L45.7868 9.84225C46.3951 10.4505 46.6992 10.7546 46.7184 11.1395C46.7376 11.5243 46.4652 11.8572 45.9205 12.5229L42.6893 16.4722C41.6497 17.7428 41.1299 18.3781 41.3589 18.9309C41.5879 19.4837 42.4047 19.5654 44.0382 19.7287L49.1157 20.2365C49.9716 20.3221 50.3996 20.3649 50.6581 20.6506C50.9167 20.9363 50.9167 21.3664 50.9167 22.2266V28.7733C50.9167 29.6335 50.9167 30.0636 50.6581 30.3493C50.3996 30.635 49.9716 30.6778 49.1157 30.7633L44.0392 31.271C42.4056 31.4344 41.5889 31.516 41.3599 32.0688C41.1309 32.6217 41.6507 33.257 42.6903 34.5276L45.9206 38.4758C46.4653 39.1415 46.7377 39.4744 46.7185 39.8592C46.6993 40.2441 46.3952 40.5482 45.7869 41.1565L41.1577 45.7857C40.5494 46.3939 40.2453 46.6981 39.8605 46.7173C39.4756 46.7365 39.1428 46.4641 38.477 45.9194L34.5278 42.6882C33.2572 41.6487 32.6219 41.1289 32.0691 41.3579C31.5163 41.5868 31.4346 42.4036 31.2713 44.0372L30.7634 49.1156C30.6778 49.9715 30.635 50.3995 30.3493 50.658C30.0637 50.9166 29.6336 50.9166 28.7734 50.9166H22.2266C21.3664 50.9166 20.9363 50.9166 20.6506 50.658C20.365 50.3995 20.3222 49.9715 20.2366 49.1156L19.7288 44.0381C19.5655 42.4046 19.4838 41.5878 18.931 41.3589C18.3782 41.1299 17.7429 41.6497 16.4723 42.6892L12.5229 45.9205C11.8571 46.4653 11.5243 46.7376 11.1394 46.7184C10.7546 46.6992 10.4505 46.3951 9.84221 45.7868L5.21299 41.1576C4.60473 40.5494 4.30061 40.2452 4.28141 39.8604C4.26222 39.4756 4.53457 39.1427 5.07929 38.4769L8.31053 34.5276C9.3501 33.257 9.86989 32.6217 9.64091 32.0689C9.41193 31.5161 8.59516 31.4344 6.96162 31.2711L1.88433 30.7633C1.0284 30.6778 0.600431 30.635 0.341883 30.3493C0.0833359 30.0636 0.0833359 29.6335 0.0833359 28.7733L0.0833361 22.2266C0.0833361 21.3664 0.0833364 20.9363 0.341884 20.6506C0.600429 20.3649 1.02839 20.3221 1.88431 20.2365H1.88433L6.96257 19.7287C8.59611 19.5653 9.41288 19.4836 9.64186 18.9308C9.87085 18.378 9.35106 17.7427 8.31148 16.4721L5.0794 12.5218C4.53469 11.856 4.26233 11.5231 4.28153 11.1383C4.30072 10.7535 4.60485 10.4494 5.2131 9.8411L9.84233 5.21187C10.4506 4.60362 10.7547 4.29949 11.1395 4.2803C11.5244 4.2611 11.8573 4.53346 12.523 5.07817L16.4724 8.30947C17.743 9.34904 18.3783 9.86883 18.9311 9.63985C19.4839 9.41087 19.5656 8.5941 19.7289 6.96056L20.2366 1.88424V1.88422C20.3222 1.02831 20.365 0.600345 20.6506 0.341799C20.9363 0.083252 21.3664 0.083252 22.2266 0.083252H28.7734C29.6336 0.083252 30.0637 0.083252 30.3493 0.341799ZM25.5 35.6666C31.1149 35.6666 35.6667 31.1148 35.6667 25.4999C35.6667 19.885 31.1149 15.3333 25.5 15.3333C19.8851 15.3333 15.3333 19.885 15.3333 25.4999C15.3333 31.1148 19.8851 35.6666 25.5 35.6666Z" fill="#FFC822"/>
</svg>
